<svg width="276" height="59" viewBox="0 0 276 59" fill="none" xmlns="http://www.w3.org/2000/svg">
<path d="M44.9411 35.1072C44.9411 32.883 45.3253 30.7801 46.0936 28.7986C46.862 26.817 47.9539 25.0781 49.3693 23.5818C50.8251 22.0855 52.564 20.9128 54.586 20.0636C56.608 19.1739 58.8726 18.729 61.3799 18.729C64.6555 18.729 67.4661 19.457 69.8116 20.9128C72.1975 22.3282 73.9769 24.2289 75.1496 26.6148L68.659 28.6772C67.8907 27.3427 66.8595 26.3115 65.5654 25.5836C64.2713 24.8152 62.8357 24.4311 61.2586 24.4311C59.9241 24.4311 58.6704 24.6939 57.4977 25.2196C56.3654 25.7454 55.3746 26.4935 54.5253 27.464C53.6761 28.3942 53.0088 29.5063 52.5236 30.8003C52.0383 32.0944 51.7957 33.53 51.7957 35.1072C51.7957 36.6439 52.0383 38.0795 52.5236 39.414C53.0493 40.7081 53.7368 41.8404 54.586 42.8109C55.4757 43.7815 56.4867 44.5499 57.619 45.116C58.7917 45.6417 60.0252 45.9046 61.3192 45.9046C62.128 45.9046 62.9368 45.8035 63.7456 45.6013C64.5544 45.3586 65.2823 45.0351 65.9294 44.6307C66.6168 44.2263 67.2032 43.7613 67.6885 43.2356C68.2142 42.7098 68.5984 42.1437 68.841 41.5371L75.3923 43.4782C74.3408 45.8641 72.5817 47.8255 70.1149 49.3622C67.6481 50.8585 64.7364 51.6066 61.3799 51.6066C58.9131 51.6066 56.6686 51.1618 54.6467 50.2721C52.6247 49.3824 50.8858 48.1894 49.4299 46.6932C48.0145 45.1565 46.9024 43.3973 46.0936 41.4158C45.3253 39.4342 44.9411 37.3314 44.9411 35.1072ZM94.9678 51.6066C92.501 51.6066 90.2566 51.182 88.2346 50.3327C86.2126 49.4431 84.4737 48.2501 83.0179 46.7538C81.6025 45.2575 80.4904 43.5186 79.6816 41.5371C78.9132 39.5555 78.529 37.4527 78.529 35.2285C78.529 33.0043 78.9132 30.9014 79.6816 28.9199C80.4904 26.8979 81.6025 25.1388 83.0179 23.6425C84.4737 22.1058 86.2126 20.9128 88.2346 20.0636C90.2566 19.1739 92.5212 18.729 95.0285 18.729C97.4953 18.729 99.7195 19.1739 101.701 20.0636C103.723 20.9532 105.442 22.1462 106.857 23.6425C108.273 25.0983 109.344 26.817 110.072 28.7986C110.84 30.7397 111.225 32.7819 111.225 34.9252C111.225 35.4105 111.204 35.8755 111.164 36.3204C111.124 36.7248 111.083 37.0685 111.043 37.3516H85.6262C85.7475 38.767 86.0711 40.0408 86.5968 41.1731C87.1629 42.3054 87.8706 43.2962 88.7199 44.1455C89.6095 44.9543 90.6003 45.5811 91.6922 46.0259C92.8245 46.4707 93.9973 46.6932 95.2105 46.6932C96.1001 46.6932 96.9696 46.5921 97.8188 46.3899C98.7085 46.1472 99.5173 45.8237 100.245 45.4193C100.973 44.9745 101.62 44.4488 102.186 43.8422C102.752 43.2356 103.197 42.5683 103.521 41.8404L109.223 43.4782C108.131 45.8641 106.311 47.8255 103.763 49.3622C101.256 50.8585 98.3243 51.6066 94.9678 51.6066ZM104.613 32.7414C104.491 31.4069 104.148 30.1735 103.581 29.0412C103.056 27.9089 102.368 26.9585 101.519 26.1902C100.67 25.3814 99.679 24.7546 98.5467 24.3097C97.4144 23.8649 96.2214 23.6425 94.9678 23.6425C93.7142 23.6425 92.5212 23.8649 91.3889 24.3097C90.297 24.7546 89.3265 25.3814 88.4772 26.1902C87.628 26.9585 86.9405 27.9089 86.4148 29.0412C85.8891 30.1735 85.5656 31.4069 85.4442 32.7414H104.613ZM134.501 25.0377C131.913 25.1185 129.608 25.7251 127.586 26.8574C125.605 27.9493 124.189 29.5265 123.34 31.5889V51H116.667V19.275H122.855V26.3722C123.947 24.1884 125.362 22.4495 127.101 21.1554C128.88 19.8209 130.781 19.093 132.803 18.9717C133.207 18.9717 133.531 18.9717 133.773 18.9717C134.056 18.9717 134.299 18.9919 134.501 19.0323V25.0377ZM152.132 51.6066C149.666 51.6066 147.421 51.182 145.399 50.3327C143.377 49.4431 141.638 48.2501 140.182 46.7538C138.767 45.2575 137.655 43.5186 136.846 41.5371C136.078 39.5555 135.694 37.4527 135.694 35.2285C135.694 33.0043 136.078 30.9014 136.846 28.9199C137.655 26.8979 138.767 25.1388 140.182 23.6425C141.638 22.1058 143.377 20.9128 145.399 20.0636C147.421 19.1739 149.686 18.729 152.193 18.729C154.66 18.729 156.884 19.1739 158.866 20.0636C160.888 20.9532 162.606 22.1462 164.022 23.6425C165.437 25.0983 166.509 26.817 167.237 28.7986C168.005 30.7397 168.389 32.7819 168.389 34.9252C168.389 35.4105 168.369 35.8755 168.329 36.3204C168.288 36.7248 168.248 37.0685 168.207 37.3516H142.791C142.912 38.767 143.236 40.0408 143.761 41.1731C144.328 42.3054 145.035 43.2962 145.885 44.1455C146.774 44.9543 147.765 45.5811 148.857 46.0259C149.989 46.4707 151.162 46.6932 152.375 46.6932C153.265 46.6932 154.134 46.5921 154.983 46.3899C155.873 46.1472 156.682 45.8237 157.41 45.4193C158.138 44.9745 158.785 44.4488 159.351 43.8422C159.917 43.2356 160.362 42.5683 160.685 41.8404L166.387 43.4782C165.296 45.8641 163.476 47.8255 160.928 49.3622C158.421 50.8585 155.489 51.6066 152.132 51.6066ZM161.777 32.7414C161.656 31.4069 161.312 30.1735 160.746 29.0412C160.22 27.9089 159.533 26.9585 158.684 26.1902C157.834 25.3814 156.844 24.7546 155.711 24.3097C154.579 23.8649 153.386 23.6425 152.132 23.6425C150.879 23.6425 149.686 23.8649 148.554 24.3097C147.462 24.7546 146.491 25.3814 145.642 26.1902C144.793 26.9585 144.105 27.9089 143.579 29.0412C143.054 30.1735 142.73 31.4069 142.609 32.7414H161.777ZM185.357 51.6066C182.81 51.6066 180.262 51.2022 177.714 50.3934C175.207 49.5442 173.043 48.3512 171.224 46.8145L173.893 42.5683C175.793 43.9433 177.674 44.9947 179.534 45.7226C181.394 46.4101 183.295 46.7538 185.236 46.7538C187.218 46.7538 188.775 46.3696 189.907 45.6013C191.08 44.8329 191.666 43.7411 191.666 42.3257C191.666 40.9912 191.019 40.0206 189.725 39.414C188.431 38.8074 186.409 38.1401 183.659 37.4122C181.677 36.8865 179.979 36.381 178.563 35.8957C177.148 35.4105 175.996 34.8443 175.106 34.1973C174.216 33.5502 173.569 32.8021 173.165 31.9529C172.76 31.1036 172.558 30.0724 172.558 28.8592C172.558 27.2416 172.861 25.806 173.468 24.5524C174.115 23.2987 174.985 22.2473 176.076 21.3981C177.209 20.5084 178.523 19.8411 180.019 19.3963C181.516 18.9515 183.133 18.729 184.872 18.729C187.258 18.729 189.482 19.093 191.545 19.8209C193.607 20.5488 195.447 21.6003 197.065 22.9752L194.214 26.9788C191.262 24.6333 188.127 23.4605 184.811 23.4605C183.113 23.4605 181.677 23.8245 180.505 24.5524C179.372 25.2399 178.806 26.3519 178.806 27.8887C178.806 28.5357 178.927 29.0816 179.17 29.5265C179.413 29.9713 179.797 30.3555 180.323 30.679C180.889 31.0025 181.596 31.3058 182.446 31.5889C183.335 31.8315 184.427 32.1146 185.721 32.4381C187.865 32.9639 189.705 33.4896 191.241 34.0153C192.819 34.541 194.113 35.1678 195.124 35.8957C196.135 36.5832 196.883 37.4122 197.368 38.3828C197.853 39.3129 198.096 40.4452 198.096 41.7797C198.096 44.8127 196.943 47.2189 194.638 48.9982C192.374 50.7371 189.28 51.6066 185.357 51.6066Z" fill="black"/>
<path d="M15.6632 32.2781C23.7481 32.2781 30.3022 25.7239 30.3022 17.639C30.3022 9.55412 23.7481 3 15.6632 3" stroke="black" stroke-width="5.29879" stroke-linejoin="round"/>
<path d="M16.0225 3.00001C8.83035 3.00001 3 9.51391 3 17.5492" stroke="black" stroke-width="6" stroke-linejoin="round"/>
<line x1="18.3638" y1="29.494" x2="18.3638" y2="55" stroke="black" stroke-width="6" stroke-linejoin="round"/>
<path d="M15.6632 32.2781C23.7481 32.2781 30.3022 25.7239 30.3022 17.639C30.3022 9.55412 23.7481 3 15.6632 3" stroke="black" stroke-width="6" stroke-linejoin="round"/>
<line x1="3.88312" y1="38.8578" x2="31.5446" y2="38.8578" stroke="black" stroke-width="6" stroke-linejoin="round"/>
</svg>
