<svg width="211" height="72" viewBox="0 0 211 72" fill="none" xmlns="http://www.w3.org/2000/svg">
<g filter="url(#filter0_d)">
<path d="M46.9411 41.1072C46.9411 38.883 47.3253 36.7801 48.0936 34.7986C48.862 32.817 49.9539 31.0781 51.3693 29.5818C52.8251 28.0855 54.564 26.9128 56.586 26.0636C58.608 25.1739 60.8726 24.729 63.3799 24.729C66.6555 24.729 69.4661 25.457 71.8116 26.9128C74.1975 28.3282 75.9769 30.2289 77.1496 32.6148L70.659 34.6772C69.8907 33.3427 68.8595 32.3115 67.5654 31.5836C66.2713 30.8152 64.8357 30.4311 63.2586 30.4311C61.9241 30.4311 60.6704 30.6939 59.4977 31.2196C58.3654 31.7454 57.3746 32.4935 56.5253 33.464C55.6761 34.3942 55.0088 35.5063 54.5236 36.8003C54.0383 38.0944 53.7957 39.53 53.7957 41.1072C53.7957 42.6439 54.0383 44.0795 54.5236 45.414C55.0493 46.7081 55.7368 47.8404 56.586 48.8109C57.4757 49.7815 58.4867 50.5499 59.619 51.116C60.7917 51.6417 62.0252 51.9046 63.3192 51.9046C64.128 51.9046 64.9368 51.8035 65.7456 51.6013C66.5544 51.3586 67.2823 51.0351 67.9294 50.6307C68.6168 50.2263 69.2032 49.7613 69.6885 49.2356C70.2142 48.7098 70.5984 48.1437 70.841 47.5371L77.3923 49.4782C76.3408 51.8641 74.5817 53.8255 72.1149 55.3622C69.6481 56.8585 66.7364 57.6066 63.3799 57.6066C60.9131 57.6066 58.6686 57.1618 56.6467 56.2721C54.6247 55.3824 52.8858 54.1894 51.4299 52.6932C50.0145 51.1565 48.9024 49.3973 48.0936 47.4158C47.3253 45.4342 46.9411 43.3314 46.9411 41.1072ZM96.9678 57.6066C94.501 57.6066 92.2566 57.182 90.2346 56.3327C88.2126 55.4431 86.4737 54.2501 85.0179 52.7538C83.6025 51.2575 82.4904 49.5186 81.6816 47.5371C80.9132 45.5555 80.529 43.4527 80.529 41.2285C80.529 39.0043 80.9132 36.9014 81.6816 34.9199C82.4904 32.8979 83.6025 31.1388 85.0179 29.6425C86.4737 28.1058 88.2126 26.9128 90.2346 26.0636C92.2566 25.1739 94.5212 24.729 97.0285 24.729C99.4953 24.729 101.719 25.1739 103.701 26.0636C105.723 26.9532 107.442 28.1462 108.857 29.6425C110.273 31.0983 111.344 32.817 112.072 34.7986C112.84 36.7397 113.225 38.7819 113.225 40.9252C113.225 41.4105 113.204 41.8755 113.164 42.3204C113.124 42.7248 113.083 43.0685 113.043 43.3516H87.6262C87.7475 44.767 88.0711 46.0408 88.5968 47.1731C89.1629 48.3054 89.8706 49.2962 90.7199 50.1455C91.6095 50.9543 92.6003 51.5811 93.6922 52.0259C94.8245 52.4707 95.9973 52.6932 97.2105 52.6932C98.1001 52.6932 98.9696 52.5921 99.8188 52.3899C100.708 52.1472 101.517 51.8237 102.245 51.4193C102.973 50.9745 103.62 50.4488 104.186 49.8422C104.752 49.2356 105.197 48.5683 105.521 47.8404L111.223 49.4782C110.131 51.8641 108.311 53.8255 105.763 55.3622C103.256 56.8585 100.324 57.6066 96.9678 57.6066ZM106.613 38.7414C106.491 37.4069 106.148 36.1735 105.581 35.0412C105.056 33.9089 104.368 32.9585 103.519 32.1902C102.67 31.3814 101.679 30.7546 100.547 30.3097C99.4144 29.8649 98.2214 29.6425 96.9678 29.6425C95.7142 29.6425 94.5212 29.8649 93.3889 30.3097C92.297 30.7546 91.3265 31.3814 90.4772 32.1902C89.628 32.9585 88.9405 33.9089 88.4148 35.0412C87.8891 36.1735 87.5656 37.4069 87.4442 38.7414H106.613ZM136.501 31.0377C133.913 31.1185 131.608 31.7251 129.586 32.8574C127.605 33.9493 126.189 35.5265 125.34 37.5889V57H118.667V25.275H124.855V32.3722C125.947 30.1884 127.362 28.4495 129.101 27.1554C130.88 25.8209 132.781 25.093 134.803 24.9717C135.207 24.9717 135.531 24.9717 135.773 24.9717C136.056 24.9717 136.299 24.9919 136.501 25.0323V31.0377ZM154.132 57.6066C151.666 57.6066 149.421 57.182 147.399 56.3327C145.377 55.4431 143.638 54.2501 142.182 52.7538C140.767 51.2575 139.655 49.5186 138.846 47.5371C138.078 45.5555 137.694 43.4527 137.694 41.2285C137.694 39.0043 138.078 36.9014 138.846 34.9199C139.655 32.8979 140.767 31.1388 142.182 29.6425C143.638 28.1058 145.377 26.9128 147.399 26.0636C149.421 25.1739 151.686 24.729 154.193 24.729C156.66 24.729 158.884 25.1739 160.866 26.0636C162.888 26.9532 164.606 28.1462 166.022 29.6425C167.437 31.0983 168.509 32.817 169.237 34.7986C170.005 36.7397 170.389 38.7819 170.389 40.9252C170.389 41.4105 170.369 41.8755 170.329 42.3204C170.288 42.7248 170.248 43.0685 170.207 43.3516H144.791C144.912 44.767 145.236 46.0408 145.761 47.1731C146.328 48.3054 147.035 49.2962 147.885 50.1455C148.774 50.9543 149.765 51.5811 150.857 52.0259C151.989 52.4707 153.162 52.6932 154.375 52.6932C155.265 52.6932 156.134 52.5921 156.983 52.3899C157.873 52.1472 158.682 51.8237 159.41 51.4193C160.138 50.9745 160.785 50.4488 161.351 49.8422C161.917 49.2356 162.362 48.5683 162.685 47.8404L168.387 49.4782C167.296 51.8641 165.476 53.8255 162.928 55.3622C160.421 56.8585 157.489 57.6066 154.132 57.6066ZM163.777 38.7414C163.656 37.4069 163.312 36.1735 162.746 35.0412C162.22 33.9089 161.533 32.9585 160.684 32.1902C159.834 31.3814 158.844 30.7546 157.711 30.3097C156.579 29.8649 155.386 29.6425 154.132 29.6425C152.879 29.6425 151.686 29.8649 150.554 30.3097C149.462 30.7546 148.491 31.3814 147.642 32.1902C146.793 32.9585 146.105 33.9089 145.579 35.0412C145.054 36.1735 144.73 37.4069 144.609 38.7414H163.777ZM187.357 57.6066C184.81 57.6066 182.262 57.2022 179.714 56.3934C177.207 55.5442 175.043 54.3512 173.224 52.8145L175.893 48.5683C177.793 49.9433 179.674 50.9947 181.534 51.7226C183.394 52.4101 185.295 52.7538 187.236 52.7538C189.218 52.7538 190.775 52.3696 191.907 51.6013C193.08 50.8329 193.666 49.7411 193.666 48.3257C193.666 46.9912 193.019 46.0206 191.725 45.414C190.431 44.8074 188.409 44.1401 185.659 43.4122C183.677 42.8865 181.979 42.381 180.563 41.8957C179.148 41.4105 177.996 40.8443 177.106 40.1973C176.216 39.5502 175.569 38.8021 175.165 37.9529C174.76 37.1036 174.558 36.0724 174.558 34.8592C174.558 33.2416 174.861 31.806 175.468 30.5524C176.115 29.2987 176.985 28.2473 178.076 27.3981C179.209 26.5084 180.523 25.8411 182.019 25.3963C183.516 24.9515 185.133 24.729 186.872 24.729C189.258 24.729 191.482 25.093 193.545 25.8209C195.607 26.5488 197.447 27.6003 199.065 28.9752L196.214 32.9788C193.262 30.6333 190.127 29.4605 186.811 29.4605C185.113 29.4605 183.677 29.8245 182.505 30.5524C181.372 31.2399 180.806 32.3519 180.806 33.8887C180.806 34.5357 180.927 35.0816 181.17 35.5265C181.413 35.9713 181.797 36.3555 182.323 36.679C182.889 37.0025 183.596 37.3058 184.446 37.5889C185.335 37.8315 186.427 38.1146 187.721 38.4381C189.865 38.9639 191.705 39.4896 193.241 40.0153C194.819 40.541 196.113 41.1678 197.124 41.8957C198.135 42.5832 198.883 43.4122 199.368 44.3828C199.853 45.3129 200.096 46.4452 200.096 47.7797C200.096 50.8127 198.943 53.2189 196.638 54.9982C194.374 56.7371 191.28 57.6066 187.357 57.6066Z" fill="white"/>
</g>
<g filter="url(#filter1_d)">
<path d="M17.6632 43.2781C25.7481 43.2781 32.3022 36.7239 32.3022 28.639C32.3022 20.5541 25.7481 14 17.6632 14" stroke="white" stroke-width="5.29879" stroke-linejoin="round"/>
<path d="M18.0225 14C10.8303 14 5 20.5139 5 28.5492" stroke="white" stroke-width="6" stroke-linejoin="round"/>
<line x1="20.3638" y1="40.4939" x2="20.3638" y2="65.9999" stroke="white" stroke-width="6" stroke-linejoin="round"/>
<path d="M17.6632 43.2781C25.7481 43.2781 32.3022 36.7239 32.3022 28.639C32.3022 20.5541 25.7481 14 17.6632 14" stroke="white" stroke-width="6" stroke-linejoin="round"/>
<line x1="5.88312" y1="49.8578" x2="33.5446" y2="49.8578" stroke="white" stroke-width="6" stroke-linejoin="round"/>
</g>
<defs>
<filter id="filter0_d" x="44.9411" y="24.729" width="157.155" height="38.8775" filterUnits="userSpaceOnUse" color-interpolation-filters="sRGB">
<feFlood flood-opacity="0" result="BackgroundImageFix"/>
<feColorMatrix in="SourceAlpha" type="matrix" values="0 0 0 0 0 0 0 0 0 0 0 0 0 0 0 0 0 0 127 0"/>
<feOffset dy="4"/>
<feGaussianBlur stdDeviation="1"/>
<feColorMatrix type="matrix" values="0 0 0 0 0 0 0 0 0 0 0 0 0 0 0 0 0 0 0.1 0"/>
<feBlend mode="normal" in2="BackgroundImageFix" result="effect1_dropShadow"/>
<feBlend mode="normal" in="SourceGraphic" in2="effect1_dropShadow" result="shape"/>
</filter>
<filter id="filter1_d" x="0" y="11" width="37.3022" height="60.9999" filterUnits="userSpaceOnUse" color-interpolation-filters="sRGB">
<feFlood flood-opacity="0" result="BackgroundImageFix"/>
<feColorMatrix in="SourceAlpha" type="matrix" values="0 0 0 0 0 0 0 0 0 0 0 0 0 0 0 0 0 0 127 0"/>
<feOffset dy="4"/>
<feGaussianBlur stdDeviation="1"/>
<feColorMatrix type="matrix" values="0 0 0 0 0 0 0 0 0 0 0 0 0 0 0 0 0 0 0.1 0"/>
<feBlend mode="normal" in2="BackgroundImageFix" result="effect1_dropShadow"/>
<feBlend mode="normal" in="SourceGraphic" in2="effect1_dropShadow" result="shape"/>
</filter>
</defs>
</svg>
