<svg width="510" height="77" viewBox="0 0 510 77" fill="none" xmlns="http://www.w3.org/2000/svg">
<g filter="url(#filter0_d)">
<path d="M46.9411 41.1072C46.9411 38.883 47.3253 36.7801 48.0936 34.7986C48.862 32.817 49.9539 31.0781 51.3693 29.5818C52.8251 28.0855 54.564 26.9128 56.586 26.0636C58.608 25.1739 60.8726 24.729 63.3799 24.729C66.6555 24.729 69.4661 25.457 71.8116 26.9128C74.1975 28.3282 75.9769 30.2289 77.1496 32.6148L70.659 34.6772C69.8907 33.3427 68.8595 32.3115 67.5654 31.5836C66.2713 30.8152 64.8357 30.4311 63.2586 30.4311C61.9241 30.4311 60.6704 30.6939 59.4977 31.2196C58.3654 31.7454 57.3746 32.4935 56.5253 33.464C55.6761 34.3942 55.0088 35.5063 54.5236 36.8003C54.0383 38.0944 53.7957 39.53 53.7957 41.1072C53.7957 42.6439 54.0383 44.0795 54.5236 45.414C55.0493 46.7081 55.7368 47.8404 56.586 48.8109C57.4757 49.7815 58.4867 50.5499 59.619 51.116C60.7917 51.6417 62.0252 51.9046 63.3192 51.9046C64.128 51.9046 64.9368 51.8035 65.7456 51.6013C66.5544 51.3586 67.2823 51.0351 67.9294 50.6307C68.6168 50.2263 69.2032 49.7613 69.6885 49.2356C70.2142 48.7098 70.5984 48.1437 70.841 47.5371L77.3923 49.4782C76.3408 51.8641 74.5817 53.8255 72.1149 55.3622C69.6481 56.8585 66.7364 57.6066 63.3799 57.6066C60.9131 57.6066 58.6686 57.1618 56.6467 56.2721C54.6247 55.3824 52.8858 54.1894 51.4299 52.6932C50.0145 51.1565 48.9024 49.3973 48.0936 47.4158C47.3253 45.4342 46.9411 43.3314 46.9411 41.1072ZM96.9678 57.6066C94.501 57.6066 92.2566 57.182 90.2346 56.3327C88.2126 55.4431 86.4737 54.2501 85.0179 52.7538C83.6025 51.2575 82.4904 49.5186 81.6816 47.5371C80.9132 45.5555 80.529 43.4527 80.529 41.2285C80.529 39.0043 80.9132 36.9014 81.6816 34.9199C82.4904 32.8979 83.6025 31.1388 85.0179 29.6425C86.4737 28.1058 88.2126 26.9128 90.2346 26.0636C92.2566 25.1739 94.5212 24.729 97.0285 24.729C99.4953 24.729 101.719 25.1739 103.701 26.0636C105.723 26.9532 107.442 28.1462 108.857 29.6425C110.273 31.0983 111.344 32.817 112.072 34.7986C112.84 36.7397 113.225 38.7819 113.225 40.9252C113.225 41.4105 113.204 41.8755 113.164 42.3204C113.124 42.7248 113.083 43.0685 113.043 43.3516H87.6262C87.7475 44.767 88.0711 46.0408 88.5968 47.1731C89.1629 48.3054 89.8706 49.2962 90.7199 50.1455C91.6095 50.9543 92.6003 51.5811 93.6922 52.0259C94.8245 52.4707 95.9973 52.6932 97.2105 52.6932C98.1001 52.6932 98.9696 52.5921 99.8188 52.3899C100.708 52.1472 101.517 51.8237 102.245 51.4193C102.973 50.9745 103.62 50.4488 104.186 49.8422C104.752 49.2356 105.197 48.5683 105.521 47.8404L111.223 49.4782C110.131 51.8641 108.311 53.8255 105.763 55.3622C103.256 56.8585 100.324 57.6066 96.9678 57.6066ZM106.613 38.7414C106.491 37.4069 106.148 36.1735 105.581 35.0412C105.056 33.9089 104.368 32.9585 103.519 32.1902C102.67 31.3814 101.679 30.7546 100.547 30.3097C99.4144 29.8649 98.2214 29.6425 96.9678 29.6425C95.7142 29.6425 94.5212 29.8649 93.3889 30.3097C92.297 30.7546 91.3265 31.3814 90.4772 32.1902C89.628 32.9585 88.9405 33.9089 88.4148 35.0412C87.8891 36.1735 87.5656 37.4069 87.4442 38.7414H106.613ZM136.501 31.0377C133.913 31.1185 131.608 31.7251 129.586 32.8574C127.605 33.9493 126.189 35.5265 125.34 37.5889V57H118.667V25.275H124.855V32.3722C125.947 30.1884 127.362 28.4495 129.101 27.1554C130.88 25.8209 132.781 25.093 134.803 24.9717C135.207 24.9717 135.531 24.9717 135.773 24.9717C136.056 24.9717 136.299 24.9919 136.501 25.0323V31.0377ZM154.132 57.6066C151.666 57.6066 149.421 57.182 147.399 56.3327C145.377 55.4431 143.638 54.2501 142.182 52.7538C140.767 51.2575 139.655 49.5186 138.846 47.5371C138.078 45.5555 137.694 43.4527 137.694 41.2285C137.694 39.0043 138.078 36.9014 138.846 34.9199C139.655 32.8979 140.767 31.1388 142.182 29.6425C143.638 28.1058 145.377 26.9128 147.399 26.0636C149.421 25.1739 151.686 24.729 154.193 24.729C156.66 24.729 158.884 25.1739 160.866 26.0636C162.888 26.9532 164.606 28.1462 166.022 29.6425C167.437 31.0983 168.509 32.817 169.237 34.7986C170.005 36.7397 170.389 38.7819 170.389 40.9252C170.389 41.4105 170.369 41.8755 170.329 42.3204C170.288 42.7248 170.248 43.0685 170.207 43.3516H144.791C144.912 44.767 145.236 46.0408 145.761 47.1731C146.328 48.3054 147.035 49.2962 147.885 50.1455C148.774 50.9543 149.765 51.5811 150.857 52.0259C151.989 52.4707 153.162 52.6932 154.375 52.6932C155.265 52.6932 156.134 52.5921 156.983 52.3899C157.873 52.1472 158.682 51.8237 159.41 51.4193C160.138 50.9745 160.785 50.4488 161.351 49.8422C161.917 49.2356 162.362 48.5683 162.685 47.8404L168.387 49.4782C167.296 51.8641 165.476 53.8255 162.928 55.3622C160.421 56.8585 157.489 57.6066 154.132 57.6066ZM163.777 38.7414C163.656 37.4069 163.312 36.1735 162.746 35.0412C162.22 33.9089 161.533 32.9585 160.684 32.1902C159.834 31.3814 158.844 30.7546 157.711 30.3097C156.579 29.8649 155.386 29.6425 154.132 29.6425C152.879 29.6425 151.686 29.8649 150.554 30.3097C149.462 30.7546 148.491 31.3814 147.642 32.1902C146.793 32.9585 146.105 33.9089 145.579 35.0412C145.054 36.1735 144.73 37.4069 144.609 38.7414H163.777ZM187.357 57.6066C184.81 57.6066 182.262 57.2022 179.714 56.3934C177.207 55.5442 175.043 54.3512 173.224 52.8145L175.893 48.5683C177.793 49.9433 179.674 50.9947 181.534 51.7226C183.394 52.4101 185.295 52.7538 187.236 52.7538C189.218 52.7538 190.775 52.3696 191.907 51.6013C193.08 50.8329 193.666 49.7411 193.666 48.3257C193.666 46.9912 193.019 46.0206 191.725 45.414C190.431 44.8074 188.409 44.1401 185.659 43.4122C183.677 42.8865 181.979 42.381 180.563 41.8957C179.148 41.4105 177.996 40.8443 177.106 40.1973C176.216 39.5502 175.569 38.8021 175.165 37.9529C174.76 37.1036 174.558 36.0724 174.558 34.8592C174.558 33.2416 174.861 31.806 175.468 30.5524C176.115 29.2987 176.985 28.2473 178.076 27.3981C179.209 26.5084 180.523 25.8411 182.019 25.3963C183.516 24.9515 185.133 24.729 186.872 24.729C189.258 24.729 191.482 25.093 193.545 25.8209C195.607 26.5488 197.447 27.6003 199.065 28.9752L196.214 32.9788C193.262 30.6333 190.127 29.4605 186.811 29.4605C185.113 29.4605 183.677 29.8245 182.505 30.5524C181.372 31.2399 180.806 32.3519 180.806 33.8887C180.806 34.5357 180.927 35.0816 181.17 35.5265C181.413 35.9713 181.797 36.3555 182.323 36.679C182.889 37.0025 183.596 37.3058 184.446 37.5889C185.335 37.8315 186.427 38.1146 187.721 38.4381C189.865 38.9639 191.705 39.4896 193.241 40.0153C194.819 40.541 196.113 41.1678 197.124 41.8957C198.135 42.5832 198.883 43.4122 199.368 44.3828C199.853 45.3129 200.096 46.4452 200.096 47.7797C200.096 50.8127 198.943 53.2189 196.638 54.9982C194.374 56.7371 191.28 57.6066 187.357 57.6066Z" fill="white"/>
</g>
<g filter="url(#filter1_d)">
<path d="M17.6632 43.2781C25.7481 43.2781 32.3022 36.7239 32.3022 28.639C32.3022 20.5541 25.7481 14 17.6632 14" stroke="white" stroke-width="5.29879" stroke-linejoin="round"/>
<path d="M18.0225 14C10.8303 14 5 20.5139 5 28.5492" stroke="white" stroke-width="6" stroke-linejoin="round"/>
<line x1="20.3638" y1="40.4939" x2="20.3638" y2="65.9999" stroke="white" stroke-width="6" stroke-linejoin="round"/>
<path d="M17.6632 43.2781C25.7481 43.2781 32.3022 36.7239 32.3022 28.639C32.3022 20.5541 25.7481 14 17.6632 14" stroke="white" stroke-width="6" stroke-linejoin="round"/>
<line x1="5.88312" y1="49.8578" x2="33.5446" y2="49.8578" stroke="white" stroke-width="6" stroke-linejoin="round"/>
</g>
<g filter="url(#filter2_d)">
<line x1="225.362" y1="10" x2="225.362" y2="71" stroke="white" stroke-width="2.72377"/>
</g>
<path d="M255.555 51.2355C254.344 51.2355 253.233 50.9888 252.224 50.4954C251.237 49.9795 250.374 49.3066 249.633 48.4768C248.916 47.6469 248.355 46.6937 247.951 45.6171C247.548 44.5405 247.346 43.4303 247.346 42.2864C247.346 41.0753 247.536 39.9202 247.918 38.8212C248.321 37.6997 248.882 36.7241 249.6 35.8942C250.318 35.0643 251.17 34.4027 252.157 33.9093C253.166 33.4158 254.276 33.1691 255.487 33.1691C256.99 33.1691 258.291 33.5504 259.39 34.313C260.489 35.0531 261.431 35.9951 262.216 37.139V33.4719H264.268V51.0673C264.268 52.2784 264.033 53.3438 263.562 54.2634C263.113 55.2054 262.496 55.9904 261.711 56.6184C260.949 57.2464 260.04 57.7174 258.986 58.0314C257.955 58.3454 256.856 58.5024 255.689 58.5024C253.671 58.5024 252.045 58.1436 250.811 57.4258C249.577 56.7081 248.579 55.7437 247.817 54.5325L249.23 53.4223C249.925 54.5437 250.845 55.3624 251.988 55.8783C253.132 56.4166 254.366 56.6857 255.689 56.6857C256.542 56.6857 257.349 56.5623 258.112 56.3156C258.874 56.0913 259.536 55.7437 260.096 55.2727C260.68 54.8241 261.139 54.241 261.476 53.5232C261.812 52.8279 261.981 52.0093 261.981 51.0673V47.602C261.308 48.7235 260.388 49.6094 259.222 50.2598C258.055 50.9103 256.833 51.2355 255.555 51.2355ZM256.194 49.3178C256.867 49.3178 257.528 49.1945 258.179 48.9478C258.829 48.701 259.412 48.3758 259.928 47.9721C260.467 47.546 260.915 47.075 261.274 46.5591C261.633 46.0432 261.868 45.5162 261.981 44.9779V39.5613C261.734 38.9333 261.397 38.3502 260.971 37.8119C260.545 37.2736 260.063 36.8138 259.525 36.4325C258.986 36.0512 258.403 35.7484 257.775 35.5241C257.17 35.2998 256.553 35.1877 255.925 35.1877C254.938 35.1877 254.052 35.4008 253.267 35.8269C252.504 36.2306 251.854 36.7689 251.316 37.4418C250.777 38.1147 250.362 38.8772 250.071 39.7295C249.802 40.5818 249.667 41.4453 249.667 42.3201C249.667 43.2621 249.835 44.1592 250.172 45.0115C250.508 45.8638 250.968 46.6152 251.551 47.2656C252.157 47.8936 252.852 48.3983 253.637 48.7795C254.422 49.1384 255.274 49.3178 256.194 49.3178ZM273.728 51.3364C272.898 51.3364 272.124 51.2019 271.406 50.9327C270.711 50.6411 270.094 50.2486 269.556 49.7552C269.04 49.2618 268.636 48.6898 268.345 48.0394C268.053 47.3665 267.907 46.6488 267.907 45.8862C267.907 45.1237 268.087 44.4172 268.446 43.7667C268.804 43.1163 269.309 42.5556 269.959 42.0846C270.61 41.6136 271.384 41.2547 272.281 41.008C273.178 40.7388 274.165 40.6043 275.241 40.6043C276.139 40.6043 277.047 40.6828 277.967 40.8398C278.886 40.9968 279.705 41.221 280.422 41.5126V39.9314C280.422 38.3838 279.985 37.1614 279.11 36.2643C278.236 35.3447 277.025 34.8849 275.477 34.8849C274.58 34.8849 273.66 35.0643 272.718 35.4232C271.776 35.7821 270.823 36.2979 269.859 36.9708L269.051 35.4568C271.316 33.9317 273.514 33.1691 275.645 33.1691C277.843 33.1691 279.57 33.7859 280.826 35.0195C282.082 36.2531 282.71 37.9577 282.71 40.1333V48.0394C282.71 48.6674 282.991 48.9814 283.551 48.9814V51C283.17 51.0673 282.878 51.1009 282.677 51.1009C282.093 51.1009 281.634 50.9551 281.297 50.6636C280.983 50.372 280.815 49.9683 280.793 49.4524L280.725 48.073C279.918 49.1272 278.897 49.9346 277.664 50.4954C276.453 51.0561 275.141 51.3364 273.728 51.3364ZM274.266 49.587C275.455 49.587 276.542 49.3627 277.529 48.9141C278.538 48.4655 279.301 47.8712 279.817 47.131C280.019 46.9292 280.165 46.7161 280.254 46.4918C280.366 46.2451 280.422 46.0208 280.422 45.8189V42.9593C279.66 42.6677 278.864 42.4434 278.034 42.2864C277.226 42.1294 276.397 42.0509 275.544 42.0509C273.929 42.0509 272.617 42.3873 271.608 43.0602C270.599 43.7331 270.094 44.619 270.094 45.718C270.094 46.2563 270.195 46.761 270.397 47.232C270.621 47.703 270.913 48.1179 271.272 48.4768C271.653 48.8132 272.101 49.0823 272.617 49.2842C273.133 49.4861 273.683 49.587 274.266 49.587ZM296.4 35.4905C294.853 35.5353 293.507 35.9615 292.363 36.7689C291.219 37.5764 290.412 38.6866 289.941 40.0996V51H287.653V33.4719H289.806V37.6773C290.457 36.3316 291.331 35.2774 292.43 34.5148C293.529 33.7523 294.707 33.371 295.963 33.371C296.142 33.371 296.288 33.3822 296.4 33.4046V35.4905ZM305.761 51.3364C304.549 51.3364 303.428 51.0897 302.396 50.5963C301.365 50.0804 300.479 49.4076 299.738 48.5777C298.998 47.7478 298.415 46.7946 297.989 45.718C297.585 44.619 297.383 43.4751 297.383 42.2864C297.383 41.0528 297.585 39.8865 297.989 38.7875C298.393 37.6661 298.942 36.6904 299.637 35.8606C300.355 35.0307 301.196 34.3803 302.161 33.9093C303.148 33.4158 304.224 33.1691 305.39 33.1691C306.871 33.1691 308.183 33.5616 309.327 34.3466C310.471 35.1092 311.368 36.04 312.018 37.139V26.4405H314.306V48.0394C314.306 48.6674 314.575 48.9814 315.113 48.9814V51C314.777 51.0673 314.508 51.1009 314.306 51.1009C313.768 51.1009 313.297 50.9327 312.893 50.5963C312.489 50.2374 312.287 49.8113 312.287 49.3178V47.602C311.592 48.7459 310.65 49.6543 309.461 50.3271C308.273 51 307.039 51.3364 305.761 51.3364ZM306.265 49.3178C306.826 49.3178 307.42 49.2057 308.048 48.9814C308.699 48.7571 309.304 48.4543 309.865 48.073C310.426 47.6693 310.897 47.2095 311.278 46.6937C311.682 46.1554 311.928 45.5834 312.018 44.9779V39.5613C311.794 38.9557 311.469 38.395 311.043 37.8792C310.616 37.3409 310.123 36.8699 309.562 36.4661C309.024 36.0624 308.441 35.7484 307.813 35.5241C307.185 35.2998 306.568 35.1877 305.962 35.1877C305.02 35.1877 304.168 35.3896 303.406 35.7933C302.643 36.197 301.981 36.7353 301.421 37.4082C300.882 38.0586 300.467 38.81 300.176 39.6622C299.884 40.5145 299.738 41.3893 299.738 42.2864C299.738 43.2284 299.907 44.1256 300.243 44.9779C300.579 45.8302 301.039 46.5815 301.622 47.232C302.206 47.86 302.89 48.3646 303.675 48.7459C304.482 49.1272 305.346 49.3178 306.265 49.3178ZM327.059 51.3364C325.781 51.3364 324.603 51.1009 323.527 50.6299C322.472 50.1365 321.553 49.4748 320.768 48.645C319.983 47.7927 319.366 46.817 318.917 45.718C318.491 44.619 318.278 43.4415 318.278 42.1855C318.278 40.9519 318.491 39.7968 318.917 38.7202C319.366 37.6212 319.972 36.668 320.734 35.8606C321.519 35.0307 322.45 34.3803 323.527 33.9093C324.603 33.4158 325.769 33.1691 327.025 33.1691C328.304 33.1691 329.47 33.4158 330.524 33.9093C331.601 34.3803 332.52 35.0307 333.283 35.8606C334.046 36.6904 334.64 37.6437 335.066 38.7202C335.492 39.7968 335.705 40.9407 335.705 42.1518C335.705 42.3313 335.705 42.5107 335.705 42.6901C335.705 42.8696 335.694 42.9929 335.672 43.0602H320.667C320.734 44.0022 320.947 44.8769 321.306 45.6844C321.687 46.4694 322.17 47.1535 322.753 47.7366C323.336 48.3198 323.998 48.7795 324.738 49.116C325.5 49.43 326.308 49.587 327.16 49.587C327.721 49.587 328.281 49.5085 328.842 49.3515C329.403 49.1945 329.919 48.9814 330.39 48.7123C330.861 48.4431 331.287 48.1179 331.668 47.7366C332.049 47.3329 332.341 46.8955 332.543 46.4245L334.528 46.9628C334.259 47.6133 333.877 48.2076 333.384 48.7459C332.891 49.2618 332.319 49.7216 331.668 50.1253C331.018 50.5066 330.3 50.7981 329.515 51C328.73 51.2243 327.911 51.3364 327.059 51.3364ZM333.519 41.3108C333.451 40.3688 333.227 39.5165 332.846 38.7539C332.487 37.9689 332.016 37.296 331.433 36.7353C330.872 36.1746 330.21 35.7372 329.448 35.4232C328.708 35.1092 327.911 34.9522 327.059 34.9522C326.207 34.9522 325.399 35.1092 324.637 35.4232C323.874 35.7372 323.201 36.1746 322.618 36.7353C322.057 37.296 321.598 37.9689 321.239 38.7539C320.902 39.5389 320.7 40.3912 320.633 41.3108H333.519ZM353.971 51H351.683V41.2098C351.683 39.124 351.369 37.61 350.741 36.668C350.135 35.726 349.193 35.255 347.915 35.255C347.242 35.255 346.569 35.3783 345.896 35.6251C345.223 35.8718 344.595 36.2194 344.012 36.668C343.452 37.1166 342.947 37.6549 342.498 38.2829C342.05 38.8885 341.725 39.5501 341.523 40.2678V51H339.235V33.4719H341.321V37.4418C342.039 36.1634 343.059 35.1316 344.382 34.3466C345.728 33.5616 347.186 33.1691 348.756 33.1691C349.72 33.1691 350.539 33.3485 351.212 33.7074C351.885 34.0663 352.423 34.5709 352.827 35.2213C353.231 35.8718 353.522 36.668 353.702 37.61C353.881 38.552 353.971 39.595 353.971 40.7388V51ZM373.245 51.3364C371.876 51.3364 370.542 51.1121 369.241 50.6636C367.94 50.215 366.819 49.5646 365.877 48.7123L366.92 47.1647C367.907 47.9721 368.905 48.5777 369.914 48.9814C370.946 49.3851 372.045 49.587 373.211 49.587C374.624 49.587 375.745 49.3066 376.575 48.7459C377.428 48.1628 377.854 47.3441 377.854 46.29C377.854 45.7965 377.742 45.3928 377.517 45.0788C377.293 44.7424 376.957 44.4508 376.508 44.2041C376.082 43.9574 375.532 43.7443 374.859 43.5649C374.209 43.363 373.446 43.1611 372.572 42.9593C371.562 42.7126 370.688 42.4658 369.948 42.2191C369.207 41.9724 368.591 41.6921 368.097 41.378C367.626 41.064 367.267 40.6828 367.021 40.2342C366.796 39.7632 366.684 39.18 366.684 38.4847C366.684 37.61 366.852 36.8362 367.189 36.1634C367.548 35.4905 368.019 34.941 368.602 34.5148C369.207 34.0663 369.903 33.7298 370.688 33.5055C371.495 33.2813 372.347 33.1691 373.245 33.1691C374.59 33.1691 375.813 33.3934 376.912 33.842C378.011 34.2681 378.897 34.8401 379.569 35.5578L378.459 36.9035C377.809 36.2306 377.013 35.726 376.071 35.3896C375.151 35.0531 374.187 34.8849 373.177 34.8849C372.572 34.8849 372.011 34.9522 371.495 35.0868C370.979 35.1989 370.519 35.3896 370.116 35.6587C369.734 35.9279 369.432 36.2755 369.207 36.7016C368.983 37.1054 368.871 37.5876 368.871 38.1483C368.871 38.6193 368.949 39.0006 369.106 39.2922C369.263 39.5837 369.521 39.8417 369.88 40.066C370.239 40.2678 370.688 40.4585 371.226 40.6379C371.787 40.7949 372.46 40.9631 373.245 41.1425C374.366 41.4117 375.353 41.6808 376.205 41.95C377.057 42.2191 377.764 42.5331 378.325 42.892C378.908 43.2509 379.345 43.6882 379.637 44.2041C379.928 44.7199 380.074 45.3479 380.074 46.0881C380.074 47.703 379.457 48.9814 378.224 49.9234C376.99 50.8654 375.33 51.3364 373.245 51.3364ZM383.819 51V33.4719H386.107V51H383.819ZM383.819 29.8048V26.4405H386.107V29.8048H383.819ZM417.219 51H414.931V41.2098C414.931 39.1688 414.606 37.6661 413.955 36.7016C413.305 35.7372 412.341 35.255 411.062 35.255C410.389 35.255 409.75 35.3783 409.144 35.6251C408.561 35.8718 408.012 36.2194 407.496 36.668C407.003 37.1166 406.565 37.6549 406.184 38.2829C405.803 38.8885 405.511 39.5613 405.309 40.3015V51H403.021V41.2098C403.021 39.124 402.707 37.61 402.079 36.668C401.451 35.726 400.487 35.255 399.186 35.255C397.863 35.255 396.685 35.7148 395.654 36.6344C394.622 37.5539 393.882 38.7651 393.433 40.2678V51H391.145V33.4719H393.231V37.4418C393.949 36.0961 394.891 35.0531 396.057 34.313C397.224 33.5504 398.513 33.1691 399.926 33.1691C401.407 33.1691 402.584 33.584 403.459 34.4139C404.356 35.2438 404.905 36.3316 405.107 37.6773C406.745 34.6718 408.999 33.1691 411.87 33.1691C412.856 33.1691 413.686 33.3485 414.359 33.7074C415.054 34.0663 415.604 34.5821 416.008 35.255C416.434 35.9054 416.737 36.7016 416.916 37.6437C417.118 38.5632 417.219 39.595 417.219 40.7388V51ZM427.545 51.3364C425.639 51.3364 424.215 50.7084 423.273 49.4524C422.353 48.174 421.893 46.2787 421.893 43.7667V33.4719H424.181V43.363C424.181 47.3329 425.538 49.3178 428.252 49.3178C428.925 49.3178 429.586 49.2057 430.237 48.9814C430.887 48.7571 431.482 48.4319 432.02 48.0058C432.581 47.5796 433.074 47.075 433.5 46.4918C433.949 45.9087 434.308 45.247 434.577 44.5069V33.4719H436.865V48.0394C436.865 48.6674 437.134 48.9814 437.672 48.9814V51C437.403 51.0449 437.179 51.0673 436.999 51.0673C436.842 51.0673 436.73 51.0673 436.663 51.0673C436.124 51.0449 435.687 50.8542 435.351 50.4954C435.014 50.1365 434.846 49.6543 434.846 49.0487V47.0301C434.083 48.3983 433.041 49.4636 431.717 50.2262C430.416 50.9664 429.026 51.3364 427.545 51.3364ZM442.138 26.4405H444.426V47.0301C444.426 47.6805 444.605 48.1964 444.964 48.5777C445.323 48.9366 445.828 49.116 446.478 49.116C446.725 49.116 447.016 49.0823 447.353 49.0151C447.689 48.9478 448.003 48.8581 448.295 48.7459L448.699 50.5963C448.272 50.7757 447.745 50.9215 447.117 51.0336C446.512 51.1458 445.985 51.2019 445.536 51.2019C444.482 51.2019 443.652 50.9103 443.047 50.3271C442.441 49.7216 442.138 48.8805 442.138 47.8039V26.4405ZM455.611 51.3364C454.781 51.3364 454.007 51.2019 453.29 50.9327C452.594 50.6411 451.978 50.2486 451.439 49.7552C450.923 49.2618 450.52 48.6898 450.228 48.0394C449.936 47.3665 449.791 46.6488 449.791 45.8862C449.791 45.1237 449.97 44.4172 450.329 43.7667C450.688 43.1163 451.193 42.5556 451.843 42.0846C452.493 41.6136 453.267 41.2547 454.164 41.008C455.061 40.7388 456.048 40.6043 457.125 40.6043C458.022 40.6043 458.93 40.6828 459.85 40.8398C460.77 40.9968 461.588 41.221 462.306 41.5126V39.9314C462.306 38.3838 461.869 37.1614 460.994 36.2643C460.119 35.3447 458.908 34.8849 457.36 34.8849C456.463 34.8849 455.544 35.0643 454.602 35.4232C453.66 35.7821 452.706 36.2979 451.742 36.9708L450.935 35.4568C453.2 33.9317 455.398 33.1691 457.529 33.1691C459.727 33.1691 461.454 33.7859 462.71 35.0195C463.966 36.2531 464.594 37.9577 464.594 40.1333V48.0394C464.594 48.6674 464.874 48.9814 465.435 48.9814V51C465.053 51.0673 464.762 51.1009 464.56 51.1009C463.977 51.1009 463.517 50.9551 463.181 50.6636C462.867 50.372 462.698 49.9683 462.676 49.4524L462.609 48.073C461.801 49.1272 460.781 49.9346 459.547 50.4954C458.336 51.0561 457.024 51.3364 455.611 51.3364ZM456.149 49.587C457.338 49.587 458.426 49.3627 459.413 48.9141C460.422 48.4655 461.185 47.8712 461.7 47.131C461.902 46.9292 462.048 46.7161 462.138 46.4918C462.25 46.2451 462.306 46.0208 462.306 45.8189V42.9593C461.543 42.6677 460.747 42.4434 459.917 42.2864C459.11 42.1294 458.28 42.0509 457.428 42.0509C455.813 42.0509 454.501 42.3873 453.491 43.0602C452.482 43.7331 451.978 44.619 451.978 45.718C451.978 46.2563 452.078 46.761 452.28 47.232C452.505 47.703 452.796 48.1179 453.155 48.4768C453.536 48.8132 453.985 49.0823 454.501 49.2842C455.017 49.4861 455.566 49.587 456.149 49.587ZM477.816 50.1589C477.681 50.2262 477.48 50.3159 477.21 50.4281C476.964 50.5402 476.672 50.6524 476.336 50.7645C475.999 50.8766 475.618 50.9776 475.192 51.0673C474.766 51.157 474.317 51.2019 473.846 51.2019C473.353 51.2019 472.882 51.1346 472.433 51C471.985 50.8654 471.592 50.6636 471.256 50.3944C470.919 50.1028 470.65 49.744 470.448 49.3178C470.246 48.8917 470.145 48.3983 470.145 47.8375V35.2886H467.723V33.4719H470.145V27.5507H472.433V33.4719H476.47V35.2886H472.433V47.1983C472.478 47.8488 472.702 48.331 473.106 48.645C473.532 48.9366 474.014 49.0823 474.553 49.0823C475.203 49.0823 475.775 48.9814 476.268 48.7795C476.762 48.5553 477.076 48.3983 477.21 48.3085L477.816 50.1589ZM487.716 51.3364C486.438 51.3364 485.271 51.1009 484.217 50.6299C483.163 50.1365 482.243 49.4748 481.458 48.645C480.696 47.8151 480.101 46.8507 479.675 45.7517C479.249 44.6527 479.036 43.4976 479.036 42.2864C479.036 41.0528 479.249 39.8865 479.675 38.7875C480.124 37.6885 480.729 36.7241 481.492 35.8942C482.277 35.0643 483.197 34.4027 484.251 33.9093C485.305 33.4158 486.46 33.1691 487.716 33.1691C488.972 33.1691 490.127 33.4158 491.181 33.9093C492.258 34.4027 493.177 35.0643 493.94 35.8942C494.725 36.7241 495.331 37.6885 495.757 38.7875C496.205 39.8865 496.43 41.0528 496.43 42.2864C496.43 43.4976 496.217 44.6527 495.79 45.7517C495.364 46.8507 494.759 47.8151 493.974 48.645C493.211 49.4748 492.291 50.1365 491.215 50.6299C490.161 51.1009 488.994 51.3364 487.716 51.3364ZM481.357 42.3201C481.357 43.3069 481.526 44.2265 481.862 45.0788C482.199 45.9087 482.647 46.6488 483.208 47.2992C483.791 47.9273 484.464 48.4207 485.226 48.7795C486.011 49.1384 486.841 49.3178 487.716 49.3178C488.591 49.3178 489.409 49.1384 490.172 48.7795C490.957 48.3983 491.641 47.8936 492.224 47.2656C492.807 46.6152 493.267 45.8638 493.604 45.0115C493.94 44.1592 494.108 43.2396 494.108 42.2528C494.108 41.2883 493.94 40.38 493.604 39.5277C493.267 38.653 492.807 37.9016 492.224 37.2736C491.641 36.6231 490.957 36.1185 490.172 35.7596C489.409 35.3783 488.591 35.1877 487.716 35.1877C486.841 35.1877 486.023 35.3783 485.26 35.7596C484.497 36.1185 483.825 36.6231 483.241 37.2736C482.658 37.924 482.199 38.6866 481.862 39.5613C481.526 40.4136 481.357 41.3332 481.357 42.3201ZM509.003 35.4905C507.455 35.5353 506.11 35.9615 504.966 36.7689C503.822 37.5764 503.014 38.6866 502.543 40.0996V51H500.256V33.4719H502.409V37.6773C503.059 36.3316 503.934 35.2774 505.033 34.5148C506.132 33.7523 507.31 33.371 508.566 33.371C508.745 33.371 508.891 33.3822 509.003 33.4046V35.4905Z" fill="white"/>
<defs>
<filter id="filter0_d" x="44.9411" y="24.729" width="157.155" height="38.8775" filterUnits="userSpaceOnUse" color-interpolation-filters="sRGB">
<feFlood flood-opacity="0" result="BackgroundImageFix"/>
<feColorMatrix in="SourceAlpha" type="matrix" values="0 0 0 0 0 0 0 0 0 0 0 0 0 0 0 0 0 0 127 0"/>
<feOffset dy="4"/>
<feGaussianBlur stdDeviation="1"/>
<feColorMatrix type="matrix" values="0 0 0 0 0 0 0 0 0 0 0 0 0 0 0 0 0 0 0.1 0"/>
<feBlend mode="normal" in2="BackgroundImageFix" result="effect1_dropShadow"/>
<feBlend mode="normal" in="SourceGraphic" in2="effect1_dropShadow" result="shape"/>
</filter>
<filter id="filter1_d" x="0" y="11" width="37.3022" height="60.9999" filterUnits="userSpaceOnUse" color-interpolation-filters="sRGB">
<feFlood flood-opacity="0" result="BackgroundImageFix"/>
<feColorMatrix in="SourceAlpha" type="matrix" values="0 0 0 0 0 0 0 0 0 0 0 0 0 0 0 0 0 0 127 0"/>
<feOffset dy="4"/>
<feGaussianBlur stdDeviation="1"/>
<feColorMatrix type="matrix" values="0 0 0 0 0 0 0 0 0 0 0 0 0 0 0 0 0 0 0.1 0"/>
<feBlend mode="normal" in2="BackgroundImageFix" result="effect1_dropShadow"/>
<feBlend mode="normal" in="SourceGraphic" in2="effect1_dropShadow" result="shape"/>
</filter>
<filter id="filter2_d" x="222" y="10" width="6.72377" height="67" filterUnits="userSpaceOnUse" color-interpolation-filters="sRGB">
<feFlood flood-opacity="0" result="BackgroundImageFix"/>
<feColorMatrix in="SourceAlpha" type="matrix" values="0 0 0 0 0 0 0 0 0 0 0 0 0 0 0 0 0 0 127 0"/>
<feOffset dy="4"/>
<feGaussianBlur stdDeviation="1"/>
<feColorMatrix type="matrix" values="0 0 0 0 0 0 0 0 0 0 0 0 0 0 0 0 0 0 0.1 0"/>
<feBlend mode="normal" in2="BackgroundImageFix" result="effect1_dropShadow"/>
<feBlend mode="normal" in="SourceGraphic" in2="effect1_dropShadow" result="shape"/>
</filter>
</defs>
</svg>
