<svg width="328" height="223" viewBox="0 0 328 223" fill="none" xmlns="http://www.w3.org/2000/svg">
<g filter="url(#filter0_d)">
<path d="M185.617 107.634C185.617 123.157 183.266 137.503 178.562 150.674C174.093 163.609 167.743 174.898 159.511 184.541C151.515 193.949 141.99 201.357 130.936 206.767C120.117 211.941 108.24 214.528 95.3047 214.528C82.3693 214.528 70.3746 211.941 59.3207 206.767C48.2668 201.357 38.7417 193.949 30.7452 184.541C22.7488 174.898 16.3987 163.609 11.6949 150.674C7.22628 137.503 4.99199 123.157 4.99199 107.634C4.99199 92.1118 7.22628 77.8828 11.6949 64.9474C16.3987 51.7768 22.7488 40.4877 30.7452 31.0801C38.7417 21.4374 48.2668 13.9113 59.3207 8.50197C70.3746 3.09261 82.3693 0.387935 95.3047 0.387935C108.24 0.387935 120.117 3.09261 130.936 8.50197C141.99 13.9113 151.515 21.4374 159.511 31.0801C167.743 40.4877 174.093 51.7768 178.562 64.9474C183.266 77.8828 185.617 92.1118 185.617 107.634ZM146.106 107.634C146.106 97.0508 144.812 87.408 142.225 78.706C139.873 70.004 136.345 62.4779 131.641 56.1278C127.173 49.7777 121.764 44.9563 115.413 41.6637C109.298 38.1358 102.596 36.3719 95.3047 36.3719C87.5435 36.3719 80.4878 38.1358 74.1377 41.6637C68.0227 44.9563 62.6134 49.7777 57.9096 56.1278C53.441 62.4779 49.9132 70.004 47.3261 78.706C44.9742 87.408 43.7982 97.0508 43.7982 107.634C43.7982 118.218 44.9742 127.861 47.3261 136.563C49.9132 145.265 53.441 152.791 57.9096 159.141C62.6134 165.256 68.0227 170.077 74.1377 173.605C80.4878 176.898 87.5435 178.544 95.3047 178.544C102.596 178.544 109.298 176.898 115.413 173.605C121.764 170.077 127.173 165.256 131.641 159.141C136.345 152.791 139.873 145.265 142.225 136.563C144.812 127.861 146.106 118.218 146.106 107.634ZM361.395 176.074V211H226.631V176.074H276.727V52.9528C274.61 55.775 271.317 58.7149 266.849 61.7724C262.38 64.8298 257.441 67.6521 252.032 70.2392C246.622 72.8263 240.978 75.0605 235.098 76.9421C229.218 78.5884 224.044 79.4115 219.576 79.4115V43.0748C224.279 43.0748 229.689 41.6637 235.804 38.8414C242.154 36.0191 248.151 32.7265 253.796 28.9634C259.675 25.2004 264.732 21.4374 268.965 17.6743C273.434 13.9113 276.021 11.2066 276.727 9.56031H316.591V176.074H361.395Z" fill="white"/>
</g>
<defs>
<filter id="filter0_d" x="0.991974" y="0.387939" width="364.403" height="222.14" filterUnits="userSpaceOnUse" color-interpolation-filters="sRGB">
<feFlood flood-opacity="0" result="BackgroundImageFix"/>
<feColorMatrix in="SourceAlpha" type="matrix" values="0 0 0 0 0 0 0 0 0 0 0 0 0 0 0 0 0 0 127 0"/>
<feOffset dy="4"/>
<feGaussianBlur stdDeviation="2"/>
<feColorMatrix type="matrix" values="0 0 0 0 0 0 0 0 0 0 0 0 0 0 0 0 0 0 0.25 0"/>
<feBlend mode="normal" in2="BackgroundImageFix" result="effect1_dropShadow"/>
<feBlend mode="normal" in="SourceGraphic" in2="effect1_dropShadow" result="shape"/>
</filter>
</defs>
</svg>
