<svg width="720" height="900" viewBox="0 0 720 900" fill="none" xmlns="http://www.w3.org/2000/svg">
<rect width="720" height="900" fill="#374AAC"/>
<line x1="640" y1="42.5" x2="682" y2="42.5" stroke="white" stroke-width="3"/>
<line x1="658" y1="54.5" x2="682" y2="54.5" stroke="white" stroke-width="3"/>
<path d="M658.871 314.836H662.896L674.397 344H669.55L666.47 336.072H655.215L652.176 344H647.288L658.871 314.836ZM665.566 332.663L660.884 320.135L656.037 332.663H665.566ZM673.206 384.483C673.206 385.661 672.96 386.715 672.467 387.646C672.001 388.577 671.358 389.371 670.536 390.028C669.742 390.658 668.797 391.151 667.702 391.507C666.607 391.836 665.443 392 664.211 392H650.286V362.836H665.32C666.333 362.836 667.25 363.055 668.072 363.494C668.893 363.932 669.592 364.507 670.167 365.219C670.742 365.903 671.18 366.697 671.481 367.601C671.81 368.477 671.974 369.367 671.974 370.271C671.974 371.695 671.604 373.037 670.865 374.296C670.153 375.529 669.126 376.446 667.784 377.048C669.455 377.541 670.769 378.445 671.727 379.759C672.713 381.047 673.206 382.621 673.206 384.483ZM668.483 383.621C668.483 383.018 668.373 382.443 668.154 381.895C667.962 381.348 667.688 380.869 667.332 380.458C667.004 380.047 666.593 379.718 666.1 379.472C665.607 379.226 665.073 379.102 664.498 379.102H654.887V388.016H664.211C664.813 388.016 665.374 387.906 665.895 387.687C666.415 387.441 666.867 387.126 667.25 386.742C667.634 386.332 667.935 385.866 668.154 385.346C668.373 384.798 668.483 384.223 668.483 383.621ZM654.887 366.821V375.405H663.348C663.923 375.405 664.443 375.296 664.909 375.077C665.402 374.858 665.826 374.57 666.182 374.214C666.566 373.831 666.853 373.379 667.045 372.859C667.264 372.339 667.373 371.763 667.373 371.134C667.373 369.874 667.017 368.847 666.306 368.053C665.594 367.231 664.69 366.821 663.595 366.821H654.887ZM662.403 440.205C660.322 440.205 658.419 439.795 656.694 438.973C654.996 438.124 653.531 437.015 652.299 435.646C651.066 434.249 650.108 432.661 649.423 430.881C648.766 429.101 648.438 427.28 648.438 425.418C648.438 423.474 648.794 421.612 649.506 419.832C650.218 418.052 651.19 416.477 652.422 415.108C653.682 413.739 655.16 412.657 656.858 411.863C658.583 411.042 660.459 410.631 662.485 410.631C664.567 410.631 666.456 411.069 668.154 411.945C669.879 412.794 671.344 413.917 672.549 415.314C673.781 416.71 674.726 418.298 675.383 420.078C676.068 421.831 676.41 423.625 676.41 425.459C676.41 427.403 676.054 429.266 675.342 431.046C674.658 432.825 673.685 434.4 672.426 435.769C671.166 437.111 669.674 438.193 667.949 439.014C666.251 439.808 664.402 440.205 662.403 440.205ZM653.12 425.418C653.12 426.787 653.339 428.115 653.777 429.403C654.216 430.69 654.832 431.826 655.626 432.812C656.447 433.798 657.433 434.592 658.583 435.194C659.733 435.769 661.02 436.057 662.444 436.057C663.923 436.057 665.224 435.756 666.347 435.153C667.497 434.523 668.469 433.702 669.263 432.689C670.057 431.675 670.66 430.539 671.07 429.279C671.481 428.02 671.686 426.733 671.686 425.418C671.686 424.022 671.467 422.693 671.029 421.434C670.591 420.147 669.961 419.024 669.14 418.066C668.346 417.08 667.373 416.299 666.223 415.724C665.101 415.122 663.841 414.821 662.444 414.821C660.966 414.821 659.651 415.136 658.501 415.765C657.351 416.368 656.379 417.162 655.585 418.148C654.791 419.134 654.175 420.27 653.736 421.557C653.326 422.817 653.12 424.104 653.12 425.418ZM662.444 484.057C663.978 484.057 665.251 483.756 666.264 483.153C667.278 482.551 668.085 481.77 668.688 480.812C669.318 479.826 669.756 478.717 670.002 477.485C670.276 476.225 670.413 474.938 670.413 473.624V458.836H675.055V473.624C675.055 475.623 674.822 477.512 674.356 479.292C673.891 481.045 673.151 482.592 672.138 483.934C671.125 485.248 669.811 486.289 668.195 487.055C666.607 487.822 664.69 488.205 662.444 488.205C660.117 488.205 658.145 487.808 656.53 487.014C654.941 486.193 653.654 485.111 652.668 483.769C651.683 482.4 650.971 480.839 650.532 479.087C650.094 477.334 649.875 475.513 649.875 473.624V458.836H654.476V473.624C654.476 474.965 654.599 476.266 654.845 477.526C655.119 478.758 655.557 479.867 656.16 480.853C656.79 481.811 657.611 482.592 658.624 483.194C659.665 483.769 660.938 484.057 662.444 484.057ZM671.686 510.903H661.993V536H657.351V510.903H647.616V506.836H671.686V510.903Z" fill="white"/>
<path d="M668.663 845.278C676.748 845.278 683.302 838.724 683.302 830.639C683.302 822.554 676.748 816 668.663 816" stroke="white" stroke-width="5.29879" stroke-linejoin="round"/>
<path d="M669.022 816C661.83 816 656 822.514 656 830.549" stroke="white" stroke-width="5.29879" stroke-linejoin="round"/>
<line x1="671.013" y1="842.494" x2="671.013" y2="868" stroke="white" stroke-width="5.29879" stroke-linejoin="round"/>
<path d="M668.663 845.278C676.748 845.278 683.302 838.724 683.302 830.639C683.302 822.554 676.748 816 668.663 816" stroke="white" stroke-width="5.29879" stroke-linejoin="round"/>
<line x1="656.883" y1="852.208" x2="684.545" y2="852.208" stroke="white" stroke-width="5.29879" stroke-linejoin="round"/>
</svg>
