<svg width="53" height="827" viewBox="0 0 53 827" fill="none" xmlns="http://www.w3.org/2000/svg">
<line y1="1.5" x2="42" y2="1.5" stroke="white" stroke-width="3"/>
<line x1="18" y1="13.5" x2="42" y2="13.5" stroke="white" stroke-width="3"/>
<path d="M18.8708 273.836H22.8962L34.3974 303H29.5505L26.4698 295.072H15.2151L12.1755 303H7.28753L18.8708 273.836ZM25.5662 291.663L20.8835 279.135L16.0366 291.663H25.5662ZM33.2062 343.483C33.2062 344.661 32.9598 345.715 32.4668 346.646C32.0013 347.577 31.3578 348.371 30.5363 349.028C29.7422 349.658 28.7974 350.151 27.7021 350.507C26.6067 350.836 25.4429 351 24.2107 351H10.286V321.836H25.3197C26.3329 321.836 27.2502 322.055 28.0718 322.494C28.8933 322.932 29.5916 323.507 30.1666 324.219C30.7417 324.903 31.1798 325.697 31.481 326.601C31.8096 327.477 31.9739 328.367 31.9739 329.271C31.9739 330.695 31.6043 332.037 30.8649 333.296C30.1529 334.529 29.126 335.446 27.7842 336.048C29.4546 336.541 30.7691 337.445 31.7275 338.759C32.7133 340.047 33.2062 341.621 33.2062 343.483ZM28.4825 342.621C28.4825 342.018 28.373 341.443 28.1539 340.895C27.9622 340.348 27.6884 339.869 27.3324 339.458C27.0038 339.047 26.593 338.718 26.1001 338.472C25.6072 338.226 25.0732 338.102 24.4982 338.102H14.8865V347.016H24.2107C24.8131 347.016 25.3745 346.906 25.8948 346.687C26.415 346.441 26.8669 346.126 27.2502 345.742C27.6336 345.332 27.9348 344.866 28.1539 344.346C28.373 343.798 28.4825 343.223 28.4825 342.621ZM14.8865 325.821V334.405H23.3481C23.9231 334.405 24.4434 334.296 24.9089 334.077C25.4018 333.858 25.8263 333.57 26.1823 333.214C26.5657 332.831 26.8532 332.379 27.0449 331.859C27.2639 331.339 27.3735 330.763 27.3735 330.134C27.3735 328.874 27.0175 327.847 26.3055 327.053C25.5935 326.231 24.6899 325.821 23.5945 325.821H14.8865ZM22.4033 399.205C20.3222 399.205 18.419 398.795 16.6938 397.973C14.996 397.124 13.531 396.015 12.2987 394.646C11.0665 393.249 10.1081 391.661 9.42346 389.881C8.76625 388.101 8.43764 386.28 8.43764 384.418C8.43764 382.474 8.79363 380.612 9.50561 378.832C10.2176 377.052 11.1897 375.477 12.422 374.108C13.6816 372.739 15.1603 371.657 16.8581 370.863C18.5833 370.042 20.4591 369.631 22.4855 369.631C24.5666 369.631 26.4561 370.069 28.1539 370.945C29.8791 371.794 31.3441 372.917 32.549 374.314C33.7813 375.71 34.726 377.298 35.3832 379.078C36.0678 380.831 36.4101 382.625 36.4101 384.459C36.4101 386.403 36.0541 388.266 35.3421 390.046C34.6575 391.825 33.6854 393.4 32.4258 394.769C31.1661 396.111 29.6737 397.193 27.9485 398.014C26.2507 398.808 24.4023 399.205 22.4033 399.205ZM13.1203 384.418C13.1203 385.787 13.3393 387.115 13.7775 388.403C14.2156 389.69 14.8317 390.826 15.6259 391.812C16.4474 392.798 17.4332 393.592 18.5833 394.194C19.7334 394.769 21.0205 395.057 22.4444 395.057C23.9231 395.057 25.2239 394.756 26.3466 394.153C27.4967 393.523 28.4688 392.702 29.263 391.689C30.0571 390.675 30.6595 389.539 31.0703 388.279C31.481 387.02 31.6864 385.733 31.6864 384.418C31.6864 383.022 31.4673 381.693 31.0292 380.434C30.5911 379.147 29.9612 378.024 29.1397 377.066C28.3456 376.08 27.3735 375.299 26.2234 374.724C25.1006 374.122 23.841 373.821 22.4444 373.821C20.9657 373.821 19.6513 374.136 18.5012 374.765C17.351 375.368 16.3789 376.162 15.5848 377.148C14.7907 378.134 14.1745 379.27 13.7364 380.557C13.3256 381.817 13.1203 383.104 13.1203 384.418ZM22.4444 443.057C23.9779 443.057 25.2512 442.756 26.2644 442.153C27.2776 441.551 28.0855 440.77 28.6879 439.812C29.3177 438.826 29.7559 437.717 30.0023 436.485C30.2761 435.225 30.4131 433.938 30.4131 432.624V417.836H35.0546V432.624C35.0546 434.623 34.8218 436.512 34.3563 438.292C33.8908 440.045 33.1514 441.592 32.1382 442.934C31.125 444.248 29.8106 445.289 28.195 446.055C26.6067 446.822 24.6899 447.205 22.4444 447.205C20.1168 447.205 18.1452 446.808 16.5295 446.014C14.9413 445.193 13.6542 444.111 12.6684 442.769C11.6826 441.4 10.9706 439.839 10.5325 438.087C10.0944 436.334 9.87529 434.513 9.87529 432.624V417.836H14.4758V432.624C14.4758 433.965 14.599 435.266 14.8454 436.526C15.1193 437.758 15.5574 438.867 16.1598 439.853C16.7897 440.811 17.6112 441.592 18.6244 442.194C19.665 442.769 20.9383 443.057 22.4444 443.057ZM31.6864 469.903H21.9926V495H17.351V469.903H7.61613V465.836H31.6864V469.903Z" fill="white"/>
<path d="M28.6632 804.278C36.7481 804.278 43.3022 797.724 43.3022 789.639C43.3022 781.554 36.7481 775 28.6632 775" stroke="white" stroke-width="5.29879" stroke-linejoin="round"/>
<path d="M29.0225 775C21.8303 775 16 781.514 16 789.549" stroke="white" stroke-width="5.29879" stroke-linejoin="round"/>
<line x1="31.0132" y1="801.494" x2="31.0132" y2="827" stroke="white" stroke-width="5.29879" stroke-linejoin="round"/>
<path d="M28.6632 804.278C36.7481 804.278 43.3022 797.724 43.3022 789.639C43.3022 781.554 36.7481 775 28.6632 775" stroke="white" stroke-width="5.29879" stroke-linejoin="round"/>
<line x1="16.8831" y1="811.208" x2="44.5446" y2="811.208" stroke="white" stroke-width="5.29879" stroke-linejoin="round"/>
</svg>
