<svg width="82" height="26" viewBox="0 0 82 26" fill="none" xmlns="http://www.w3.org/2000/svg">
<path d="M20.6681 4.87853H12.9133V25H8.23306V4.87853H0.478269V0.744917H20.6681V4.87853ZM23.235 25V7.09907H27.8127V25H23.235ZM23.235 4.60523V0.0616762H27.8127V4.60523H23.235ZM59.7503 25H55.1726V14.9563C55.1726 13.5215 54.9221 12.4739 54.421 11.8134C53.9427 11.153 53.2709 10.8227 52.4054 10.8227C51.4945 10.8227 50.6404 11.1757 49.8433 11.8818C49.0462 12.565 48.4768 13.4646 48.1352 14.5806V25H43.5575V14.9563C43.5575 13.5215 43.3069 12.4739 42.8059 11.8134C42.3276 11.153 41.6558 10.8227 40.7903 10.8227C39.9021 10.8227 39.0481 11.1644 38.2282 11.8476C37.4311 12.5308 36.8617 13.4304 36.5201 14.5464V25H31.9424V7.09907H36.076V10.4128C36.7364 9.25128 37.636 8.36306 38.7748 7.74815C39.9363 7.11045 41.2572 6.79161 42.7376 6.79161C44.2407 6.79161 45.4022 7.156 46.2221 7.88479C47.042 8.61359 47.5658 9.51319 47.7936 10.5836C48.5224 9.35376 49.4447 8.42 50.5607 7.78231C51.6767 7.12184 52.952 6.79161 54.3868 6.79161C55.48 6.79161 56.3796 6.99658 57.0856 7.40652C57.7917 7.81647 58.3383 8.35168 58.7254 9.01214C59.1126 9.67261 59.3745 10.4242 59.5112 11.2668C59.6706 12.1095 59.7503 12.9636 59.7503 13.829V25ZM72.0372 25.3416C70.6024 25.3416 69.3042 25.1025 68.1427 24.6242C66.9812 24.1232 65.9905 23.4513 65.1706 22.6087C64.3507 21.766 63.713 20.7867 63.2575 19.6707C62.8248 18.5548 62.6084 17.3819 62.6084 16.152C62.6084 14.8766 62.8248 13.681 63.2575 12.565C63.6902 11.4263 64.3165 10.4356 65.1364 9.5929C65.9563 8.72746 66.947 8.04422 68.1085 7.54317C69.2928 7.04213 70.6137 6.79161 72.0713 6.79161C73.5289 6.79161 74.8271 7.04213 75.9658 7.54317C77.1273 8.04422 78.1066 8.71607 78.9037 9.55874C79.7236 10.4014 80.3386 11.3807 80.7485 12.4967C81.1812 13.6126 81.3976 14.7741 81.3976 15.9812C81.3976 16.2773 81.3862 16.562 81.3634 16.8353C81.3634 17.1086 81.3406 17.3363 81.2951 17.5185H67.4594C67.5278 18.2245 67.6986 18.8508 67.9719 19.3974C68.2452 19.944 68.5982 20.4109 69.0309 20.7981C69.4636 21.1852 69.9533 21.4813 70.4999 21.6863C71.0465 21.8912 71.6158 21.9937 72.208 21.9937C73.119 21.9937 73.973 21.7774 74.7701 21.3447C75.59 20.8892 76.148 20.297 76.4441 19.5682L80.3727 20.6614C79.7123 22.0279 78.6532 23.1552 77.1956 24.0435C75.7608 24.9089 74.0413 25.3416 72.0372 25.3416ZM76.6832 14.5464C76.5693 13.2027 76.0683 12.1323 75.1801 11.3352C74.3146 10.5153 73.2556 10.1053 72.003 10.1053C71.3881 10.1053 70.8073 10.2192 70.2607 10.447C69.7369 10.6519 69.27 10.948 68.8601 11.3352C68.4501 11.7223 68.1085 12.1892 67.8352 12.7358C67.5847 13.2824 67.4367 13.8859 67.3911 14.5464H76.6832Z" fill="white"/>
</svg>
