<svg width="218" height="41" viewBox="0 0 218 41" fill="none" xmlns="http://www.w3.org/2000/svg">
<circle r="2.64205" transform="matrix(-1 0 0 1 13.4643 14.9328)" fill="white"/>
<path d="M13.4567 24.3144C7.93705 23.74 3.92811 18.7998 4.50247 13.2802C5.07684 7.76051 10.017 3.75156 15.5367 4.32593" stroke="white" stroke-width="5.17639" stroke-linejoin="round"/>
<path d="M13.4567 24.3143C7.93705 23.7399 3.92811 18.7997 4.50247 13.28C5.07684 7.76039 10.017 3.75144 15.5367 4.32581" stroke="white" stroke-width="5.17639" stroke-linejoin="round"/>
<path d="M15.2914 4.30027C20.2015 4.81122 23.7192 9.67253 23.1483 15.1583" stroke="white" stroke-width="5.17639" stroke-linejoin="round"/>
<line y1="-2.64954" x2="18.3471" y2="-2.64954" transform="matrix(-0.1035 0.99463 0.99463 0.1035 13.9457 21.5994)" stroke="white" stroke-width="5.29909" stroke-linejoin="round"/>
<line y1="-2.5882" x2="18.9868" y2="-2.5882" transform="matrix(-0.99463 -0.1035 -0.1035 0.99463 20.8184 31.691)" stroke="white" stroke-width="5.17639" stroke-linejoin="round"/>
<path d="M36.059 19.7016C36.059 18.2213 36.3209 16.7637 36.8448 15.3289C37.3913 13.8713 38.1771 12.5732 39.2019 11.4344C40.2268 10.2957 41.4794 9.37331 42.9598 8.66729C44.4401 7.96128 46.1255 7.60827 48.0158 7.60827C50.2477 7.60827 52.1721 8.09793 53.7891 9.07724C55.4289 10.0566 56.6474 11.3319 57.4445 12.9034L53.8233 15.3972C53.5045 14.714 53.1173 14.1446 52.6618 13.6891C52.2063 13.2109 51.7166 12.8351 51.1928 12.5618C50.669 12.2885 50.1224 12.0949 49.553 11.981C48.9837 11.8444 48.4257 11.776 47.8791 11.776C46.6948 11.776 45.6586 12.0152 44.7704 12.4934C43.9049 12.9717 43.1761 13.598 42.584 14.3724C42.0146 15.1239 41.5819 15.9894 41.2858 16.9687C40.9898 17.9252 40.8417 18.8818 40.8417 19.8383C40.8417 20.9087 41.0125 21.945 41.3541 22.947C41.6958 23.9264 42.174 24.7918 42.789 25.5434C43.4266 26.2949 44.1782 26.8985 45.0437 27.354C45.9319 27.8095 46.8998 28.0372 47.9474 28.0372C48.494 28.0372 49.0634 27.9689 49.6555 27.8322C50.2477 27.6956 50.8057 27.4792 51.3295 27.1831C51.8761 26.8871 52.3771 26.5113 52.8326 26.0558C53.2881 25.5775 53.6525 25.0082 53.9258 24.3477L57.7861 26.5682C57.3989 27.4792 56.841 28.2877 56.1122 28.9937C55.4062 29.677 54.5977 30.2577 53.6867 30.736C52.7984 31.2143 51.8419 31.5787 50.817 31.8292C49.7922 32.0797 48.7901 32.205 47.8108 32.205C46.0799 32.205 44.4971 31.8406 43.0623 31.1118C41.6274 30.383 40.3862 29.4378 39.3386 28.2763C38.3137 27.092 37.5052 25.7597 36.9131 24.2794C36.3437 22.7762 36.059 21.2503 36.059 19.7016ZM68.805 32.3416C67.3702 32.3416 66.072 32.1025 64.9105 31.6242C63.749 31.1232 62.7583 30.4513 61.9384 29.6087C61.1185 28.766 60.4808 27.7867 60.0253 26.6707C59.5926 25.5548 59.3763 24.3819 59.3763 23.152C59.3763 21.8766 59.5926 20.681 60.0253 19.565C60.458 18.4263 61.0844 17.4356 61.9042 16.5929C62.7241 15.7275 63.7148 15.0442 64.8763 14.5432C66.0606 14.0421 67.3816 13.7916 68.8391 13.7916C70.2967 13.7916 71.5949 14.0421 72.7336 14.5432C73.8951 15.0442 74.8745 15.7161 75.6716 16.5587C76.4915 17.4014 77.1064 18.3807 77.5163 19.4967C77.949 20.6126 78.1654 21.7741 78.1654 22.9812C78.1654 23.2773 78.154 23.562 78.1312 23.8353C78.1312 24.1086 78.1085 24.3363 78.0629 24.5185H64.2273C64.2956 25.2245 64.4664 25.8508 64.7397 26.3974C65.013 26.944 65.366 27.4109 65.7987 27.7981C66.2314 28.1852 66.7211 28.4813 67.2677 28.6863C67.8143 28.8912 68.3837 28.9937 68.9758 28.9937C69.8868 28.9937 70.7408 28.7774 71.538 28.3447C72.3578 27.8892 72.9158 27.297 73.2119 26.5682L77.1405 27.6614C76.4801 29.0279 75.421 30.1552 73.9635 31.0435C72.5287 31.9089 70.8092 32.3416 68.805 32.3416ZM73.451 21.5464C73.3372 20.2027 72.8361 19.1323 71.9479 18.3352C71.0825 17.5153 70.0234 17.1053 68.7708 17.1053C68.1559 17.1053 67.5752 17.2192 67.0286 17.447C66.5047 17.6519 66.0379 17.948 65.6279 18.3352C65.218 18.7223 64.8763 19.1892 64.6031 19.7358C64.3525 20.2824 64.2045 20.8859 64.1589 21.5464H73.451ZM91.6127 18.0619C90.2235 18.0846 88.9822 18.3579 87.889 18.8818C86.7959 19.3828 86.0101 20.1458 85.5319 21.1706V32H80.9541V14.0991H85.1561V17.9252C85.4749 17.3103 85.8507 16.7637 86.2834 16.2854C86.7162 15.7844 87.183 15.3517 87.6841 14.9873C88.1851 14.6229 88.6862 14.3496 89.1872 14.1674C89.711 13.9624 90.2121 13.8599 90.6903 13.8599C90.9409 13.8599 91.1231 13.8599 91.2369 13.8599C91.3736 13.8599 91.4988 13.8713 91.6127 13.8941V18.0619ZM101.566 32.3416C100.131 32.3416 98.8329 32.1025 97.6714 31.6242C96.5099 31.1232 95.5192 30.4513 94.6993 29.6087C93.8794 28.766 93.2417 27.7867 92.7862 26.6707C92.3535 25.5548 92.1372 24.3819 92.1372 23.152C92.1372 21.8766 92.3535 20.681 92.7862 19.565C93.219 18.4263 93.8453 17.4356 94.6652 16.5929C95.485 15.7275 96.4757 15.0442 97.6373 14.5432C98.8215 14.0421 100.142 13.7916 101.6 13.7916C103.058 13.7916 104.356 14.0421 105.495 14.5432C106.656 15.0442 107.635 15.7161 108.432 16.5587C109.252 17.4014 109.867 18.3807 110.277 19.4967C110.71 20.6126 110.926 21.7741 110.926 22.9812C110.926 23.2773 110.915 23.562 110.892 23.8353C110.892 24.1086 110.869 24.3363 110.824 24.5185H96.9882C97.0565 25.2245 97.2273 25.8508 97.5006 26.3974C97.7739 26.944 98.1269 27.4109 98.5596 27.7981C98.9923 28.1852 99.482 28.4813 100.029 28.6863C100.575 28.8912 101.145 28.9937 101.737 28.9937C102.648 28.9937 103.502 28.7774 104.299 28.3447C105.119 27.8892 105.677 27.297 105.973 26.5682L109.901 27.6614C109.241 29.0279 108.182 30.1552 106.724 31.0435C105.29 31.9089 103.57 32.3416 101.566 32.3416ZM106.212 21.5464C106.098 20.2027 105.597 19.1323 104.709 18.3352C103.843 17.5153 102.784 17.1053 101.532 17.1053C100.917 17.1053 100.336 17.2192 99.7895 17.447C99.2656 17.6519 98.7988 17.948 98.3888 18.3352C97.9789 18.7223 97.6373 19.1892 97.364 19.7358C97.1134 20.2824 96.9654 20.8859 96.9198 21.5464H106.212ZM120.479 32.3416C118.976 32.3416 117.507 32.1025 116.072 31.6242C114.637 31.1459 113.408 30.4627 112.383 29.5745L114.091 26.7049C115.184 27.4792 116.243 28.0714 117.268 28.4813C118.316 28.8685 119.352 29.0621 120.377 29.0621C121.288 29.0621 122.005 28.8913 122.529 28.5496C123.053 28.208 123.315 27.7184 123.315 27.0807C123.315 26.443 123.007 25.9761 122.392 25.68C121.777 25.3839 120.775 25.0423 119.386 24.6552C118.224 24.3363 117.234 24.0288 116.414 23.7328C115.594 23.4367 114.933 23.1065 114.432 22.7421C113.931 22.3549 113.567 21.9222 113.339 21.4439C113.112 20.9429 112.998 20.3507 112.998 19.6675C112.998 18.7565 113.168 17.9366 113.51 17.2078C113.874 16.479 114.376 15.8641 115.013 15.3631C115.651 14.8392 116.391 14.4407 117.234 14.1674C118.099 13.8941 119.033 13.7574 120.035 13.7574C121.379 13.7574 122.631 13.951 123.793 14.3382C124.977 14.7254 126.059 15.3517 127.038 16.2171L125.194 18.9842C124.283 18.301 123.394 17.8 122.529 17.4811C121.686 17.1623 120.844 17.0028 120.001 17.0028C119.227 17.0028 118.577 17.1623 118.054 17.4811C117.53 17.8 117.268 18.3124 117.268 19.0184C117.268 19.3373 117.325 19.5992 117.439 19.8041C117.575 20.0091 117.78 20.1913 118.054 20.3507C118.327 20.5102 118.68 20.6696 119.113 20.829C119.568 20.9656 120.126 21.1137 120.787 21.2731C122.016 21.592 123.064 21.9108 123.93 22.2296C124.818 22.5485 125.535 22.9129 126.082 23.3228C126.651 23.7328 127.061 24.211 127.312 24.7576C127.585 25.2815 127.722 25.9191 127.722 26.6707C127.722 28.4244 127.072 29.8136 125.774 30.8385C124.476 31.8406 122.711 32.3416 120.479 32.3416ZM130.703 15.6364L131.455 11.4686H130.088V6.8567H134.7V11.5369L133.47 15.6364H130.703ZM163.392 11.8785H155.637V32H150.957V11.8785H143.202V7.74492H163.392V11.8785ZM165.959 32V14.0991H170.537V32H165.959ZM165.959 11.6052V7.06168H170.537V11.6052H165.959ZM185.393 32.3416C183.981 32.3416 182.751 32.0342 181.704 31.4192C180.656 30.7816 179.836 29.9275 179.244 28.8571V39.2765H174.666V14.0991H178.663V17.1737C179.324 16.126 180.178 15.3061 181.225 14.714C182.273 14.0991 183.48 13.7916 184.847 13.7916C186.054 13.7916 187.17 14.0421 188.195 14.5432C189.219 15.0214 190.096 15.6819 190.825 16.5246C191.577 17.3445 192.157 18.3238 192.567 19.4625C193 20.5785 193.216 21.7628 193.216 23.0154C193.216 24.3135 193.023 25.532 192.636 26.6707C192.248 27.8095 191.702 28.8002 190.996 29.6428C190.313 30.4855 189.493 31.1459 188.536 31.6242C187.58 32.1025 186.532 32.3416 185.393 32.3416ZM183.856 28.4471C184.539 28.4471 185.166 28.2991 185.735 28.003C186.327 27.707 186.828 27.3084 187.238 26.8074C187.648 26.3063 187.967 25.7256 188.195 25.0651C188.422 24.4046 188.536 23.7214 188.536 23.0154C188.536 22.2638 188.411 21.5692 188.16 20.9315C187.91 20.271 187.557 19.7016 187.101 19.2234C186.669 18.7451 186.145 18.3693 185.53 18.096C184.938 17.8227 184.289 17.6861 183.583 17.6861C183.15 17.6861 182.706 17.7658 182.25 17.9252C181.795 18.0619 181.374 18.2668 180.986 18.5401C180.599 18.8134 180.246 19.1323 179.927 19.4967C179.631 19.8611 179.404 20.2596 179.244 20.6923V24.8943C179.654 25.9191 180.28 26.7732 181.123 27.4564C181.966 28.1169 182.877 28.4471 183.856 28.4471ZM203.082 32.3416C201.579 32.3416 200.11 32.1025 198.675 31.6242C197.24 31.1459 196.01 30.4627 194.986 29.5745L196.694 26.7049C197.787 27.4792 198.846 28.0714 199.871 28.4813C200.918 28.8685 201.955 29.0621 202.98 29.0621C203.891 29.0621 204.608 28.8913 205.132 28.5496C205.656 28.208 205.917 27.7184 205.917 27.0807C205.917 26.443 205.61 25.9761 204.995 25.68C204.38 25.3839 203.378 25.0423 201.989 24.6552C200.827 24.3363 199.837 24.0288 199.017 23.7328C198.197 23.4367 197.536 23.1065 197.035 22.7421C196.534 22.3549 196.17 21.9222 195.942 21.4439C195.714 20.9429 195.601 20.3507 195.601 19.6675C195.601 18.7565 195.771 17.9366 196.113 17.2078C196.477 16.479 196.978 15.8641 197.616 15.3631C198.254 14.8392 198.994 14.4407 199.837 14.1674C200.702 13.8941 201.636 13.7574 202.638 13.7574C203.982 13.7574 205.234 13.951 206.396 14.3382C207.58 14.7254 208.662 15.3517 209.641 16.2171L207.796 18.9842C206.885 18.301 205.997 17.8 205.132 17.4811C204.289 17.1623 203.446 17.0028 202.604 17.0028C201.829 17.0028 201.18 17.1623 200.656 17.4811C200.133 17.8 199.871 18.3124 199.871 19.0184C199.871 19.3373 199.928 19.5992 200.042 19.8041C200.178 20.0091 200.383 20.1913 200.656 20.3507C200.93 20.5102 201.283 20.6696 201.716 20.829C202.171 20.9656 202.729 21.1137 203.389 21.2731C204.619 21.592 205.667 21.9108 206.532 22.2296C207.421 22.5485 208.138 22.9129 208.685 23.3228C209.254 23.7328 209.664 24.211 209.914 24.7576C210.188 25.2815 210.324 25.9191 210.324 26.6707C210.324 28.4244 209.675 29.8136 208.377 30.8385C207.079 31.8406 205.314 32.3416 203.082 32.3416Z" fill="white"/>
</svg>
